<?xml version="1.0" encoding="UTF-8" standalone="no"?>
<!DOCTYPE svg PUBLIC "-//W3C//DTD SVG 1.1//EN"
 "http://www.w3.org/Graphics/SVG/1.1/DTD/svg11.dtd">
<!-- Generated by graphviz version 12.0.0 (0)
 -->
<!-- Pages: 1 -->
<svg width="446pt" height="276pt"
 viewBox="0.00 0.00 446.00 275.63" xmlns="http://www.w3.org/2000/svg" xmlns:xlink="http://www.w3.org/1999/xlink">
<g id="graph0" class="graph" transform="scale(1 1) rotate(0) translate(4 271.63)">
<polygon fill="white" stroke="none" points="-4,4 -4,-271.63 442,-271.63 442,4 -4,4"/>
<g id="clust1" class="cluster">
<title>clusterunits (5)</title>
<path fill="none" stroke="black" d="M20,-137.82C20,-137.82 208,-137.82 208,-137.82 214,-137.82 220,-143.82 220,-149.82 220,-149.82 220,-247.63 220,-247.63 220,-253.63 214,-259.63 208,-259.63 208,-259.63 20,-259.63 20,-259.63 14,-259.63 8,-253.63 8,-247.63 8,-247.63 8,-149.82 8,-149.82 8,-143.82 14,-137.82 20,-137.82"/>
<text text-anchor="middle" x="189.12" y="-145.02" font-family="Times New Roman,serif" font-size="14.00">units (5)</text>
</g>
<g id="clust2" class="cluster">
<title>clustercontacts (4)</title>
<path fill="none" stroke="black" d="M240,-137.82C240,-137.82 418,-137.82 418,-137.82 424,-137.82 430,-143.82 430,-149.82 430,-149.82 430,-247.63 430,-247.63 430,-253.63 424,-259.63 418,-259.63 418,-259.63 240,-259.63 240,-259.63 234,-259.63 228,-253.63 228,-247.63 228,-247.63 228,-149.82 228,-149.82 228,-143.82 234,-137.82 240,-137.82"/>
<text text-anchor="middle" x="390.12" y="-145.02" font-family="Times New Roman,serif" font-size="14.00">contacts (4)</text>
</g>
<g id="clust3" class="cluster">
<title>cluster3</title>
<path fill="none" stroke="black" d="M121,-8C121,-8 315,-8 315,-8 321,-8 327,-14 327,-20 327,-20 327,-117.82 327,-117.82 327,-123.82 321,-129.82 315,-129.82 315,-129.82 121,-129.82 121,-129.82 115,-129.82 109,-123.82 109,-117.82 109,-117.82 109,-20 109,-20 109,-14 115,-8 121,-8"/>
<text text-anchor="middle" x="315.62" y="-15.2" font-family="Times New Roman,serif" font-size="14.00">3</text>
</g>
<!-- sed_rates -->
<g id="node1" class="node">
<title>sed_rates</title>
<ellipse fill="none" stroke="black" cx="114" cy="-210.98" rx="97.76" ry="40.66"/>
<text text-anchor="middle" x="114" y="-222.43" font-family="Times New Roman,serif" font-size="14.00">sed_rates</text>
<text text-anchor="middle" x="114" y="-205.93" font-family="Times New Roman,serif" font-size="14.00">~</text>
<text text-anchor="middle" x="114" y="-189.43" font-family="Times New Roman,serif" font-size="14.00">CustomDist_sed_rates</text>
</g>
<!-- likelihood -->
<g id="node3" class="node">
<title>likelihood</title>
<ellipse fill="lightgrey" stroke="black" cx="218" cy="-81.16" rx="100.94" ry="40.66"/>
<text text-anchor="middle" x="218" y="-92.61" font-family="Times New Roman,serif" font-size="14.00">likelihood</text>
<text text-anchor="middle" x="218" y="-76.11" font-family="Times New Roman,serif" font-size="14.00">~</text>
<text text-anchor="middle" x="218" y="-59.61" font-family="Times New Roman,serif" font-size="14.00">CustomDist_likelihood</text>
</g>
<!-- sed_rates&#45;&gt;likelihood -->
<g id="edge1" class="edge">
<title>sed_rates&#45;&gt;likelihood</title>
<path fill="none" stroke="black" d="M144.92,-171.97C155.93,-158.44 168.45,-143.05 179.99,-128.88"/>
<polygon fill="black" stroke="black" points="182.47,-131.38 186.06,-121.41 177.04,-126.96 182.47,-131.38"/>
</g>
<!-- hiatuses -->
<g id="node2" class="node">
<title>hiatuses</title>
<ellipse fill="none" stroke="black" cx="329" cy="-210.98" rx="92.98" ry="40.66"/>
<text text-anchor="middle" x="329" y="-222.43" font-family="Times New Roman,serif" font-size="14.00">hiatuses</text>
<text text-anchor="middle" x="329" y="-205.93" font-family="Times New Roman,serif" font-size="14.00">~</text>
<text text-anchor="middle" x="329" y="-189.43" font-family="Times New Roman,serif" font-size="14.00">CustomDist_hiatuses</text>
</g>
<!-- hiatuses&#45;&gt;likelihood -->
<g id="edge2" class="edge">
<title>hiatuses&#45;&gt;likelihood</title>
<path fill="none" stroke="black" d="M296.6,-172.66C284.51,-158.74 270.64,-142.77 257.95,-128.16"/>
<polygon fill="black" stroke="black" points="260.83,-126.14 251.63,-120.88 255.54,-130.73 260.83,-126.14"/>
</g>
</g>
</svg>